<svg width="41" height="40" viewBox="0 0 41 40" fill="none" xmlns="http://www.w3.org/2000/svg">
<g clip-path="url(#clip0_517_27374)">
<path d="M40.4998 20.1556C40.4998 18.7654 40.3896 17.3677 40.1546 16H21.2998V23.8754H32.0971C31.649 26.4153 29.8078 28.9722 27.6998 30.4L28.1013 35.2L34.0998 35.2C37.8825 31.638 40.4998 26.3778 40.4998 20.1556Z" fill="#4285F4"/>
<path d="M20.8127 40C26.2189 40 30.7781 38.2473 34.0999 35.2218L27.6999 30.4C25.9027 31.6073 23.5231 32.1673 20.82 32.1673C15.5906 32.1673 10.8908 28.6836 9.2999 24H2.8999V29.0982C6.30273 35.7818 13.2336 40 20.8127 40Z" fill="#34A853"/>
<path d="M9.29978 23.9998C8.38281 21.5658 8.78281 18.4338 9.69978 15.9998L10.0998 11.1998L2.89976 10.7998C-0.205061 16.3376 -0.276427 23.262 2.82839 28.7998L9.29978 23.9998Z" fill="#FBBC04"/>
<path d="M21.1985 7.82985C24.1179 7.78624 26.9394 8.84748 29.0537 10.7955L34.8999 5.14766C31.198 1.78946 26.2848 -0.0568174 21.1985 0.00133309C13.4562 0.00133309 6.37604 4.11269 2.8999 10.8L9.70169 16C11.3194 11.3116 15.8564 7.82985 21.1985 7.82985Z" fill="#EA4335"/>
</g>
<defs>
<clipPath id="clip0_517_27374">
<rect width="40" height="40" fill="white" transform="translate(0.5)"/>
</clipPath>
</defs>
</svg>
