<svg width="24" height="25" viewBox="0 0 24 25" fill="none" xmlns="http://www.w3.org/2000/svg">
<path d="M24 12.7149C24 6.08745 18.6274 0.714859 12 0.714859C5.37259 0.714859 0 6.08745 0 12.7149C0 18.3426 3.87432 23.0647 9.10108 24.3615V16.3819H6.62659V12.7149H9.10108V11.1347C9.10108 7.05033 10.9495 5.15721 14.9594 5.15721C15.7196 5.15721 17.0314 5.30625 17.568 5.45534V8.77953C17.2848 8.74972 16.7929 8.73479 16.1817 8.73479C14.214 8.73479 13.4538 9.48013 13.4538 11.418V12.7149H17.3734L16.7001 16.3819H13.4538V24.627C19.3955 23.9093 24 18.8501 24 12.7149Z" fill="#0866FF"/>
</svg>
