<svg width="24" height="25" viewBox="0 0 24 25" fill="none" xmlns="http://www.w3.org/2000/svg">
<path d="M12 0.705078C5.37284 0.705078 0 6.07792 0 12.7051C0 17.7915 3.16049 22.1372 7.62469 23.8853C7.51605 22.9372 7.42716 21.4754 7.6642 20.4384C7.88148 19.5001 9.06667 14.473 9.06667 14.473C9.06667 14.473 8.71111 13.752 8.71111 12.6952C8.71111 11.0261 9.67901 9.78162 10.884 9.78162C11.9111 9.78162 12.4049 10.552 12.4049 11.4705C12.4049 12.4977 11.7531 14.0384 11.4074 15.4705C11.121 16.6656 12.0099 17.6434 13.1852 17.6434C15.3185 17.6434 16.958 15.3915 16.958 12.152C16.958 9.27792 14.8938 7.27298 11.9407 7.27298C8.52346 7.27298 6.51852 9.831 6.51852 12.4779C6.51852 13.5051 6.91358 14.6112 7.40741 15.2137C7.50617 15.3322 7.51605 15.4409 7.48642 15.5594C7.39753 15.9347 7.19012 16.7545 7.15062 16.9224C7.10123 17.1396 6.97284 17.189 6.74568 17.0804C5.24444 16.3792 4.30617 14.1964 4.30617 12.4285C4.30617 8.64582 7.05185 5.16928 12.237 5.16928C16.3951 5.16928 19.6346 8.13224 19.6346 12.1026C19.6346 16.2409 17.0272 19.5693 13.4123 19.5693C12.1975 19.5693 11.0519 18.9372 10.6667 18.1866C10.6667 18.1866 10.0642 20.4779 9.91605 21.0409C9.64938 22.0878 8.91852 23.3915 8.42469 24.1915C9.55062 24.5372 10.7358 24.7248 11.9802 24.7248C18.6074 24.7248 23.9802 19.352 23.9802 12.7248C24 6.07792 18.6272 0.705078 12 0.705078Z" fill="#E60019"/>
</svg>
