<svg width="24" height="25" viewBox="0 0 24 25" fill="none" xmlns="http://www.w3.org/2000/svg">
<path d="M0 24.7148L1.687 18.5518C0.646 16.7478 0.099 14.7028 0.1 12.6058C0.103 6.04984 5.438 0.714844 11.993 0.714844C15.174 0.715844 18.16 1.95484 20.406 4.20284C22.651 6.45084 23.887 9.43884 23.886 12.6168C23.883 19.1738 18.548 24.5088 11.993 24.5088C10.003 24.5078 8.042 24.0088 6.305 23.0608L0 24.7148ZM6.597 20.9078C8.273 21.9028 9.873 22.4988 11.989 22.4998C17.437 22.4998 21.875 18.0658 21.878 12.6148C21.88 7.15284 17.463 2.72484 11.997 2.72284C6.545 2.72284 2.11 7.15684 2.108 12.6068C2.107 14.8318 2.759 16.4978 3.854 18.2408L2.855 21.8888L6.597 20.9078ZM17.984 15.4438C17.91 15.3198 17.712 15.2458 17.414 15.0968C17.117 14.9478 15.656 14.2288 15.383 14.1298C15.111 14.0308 14.913 13.9808 14.714 14.2788C14.516 14.5758 13.946 15.2458 13.773 15.4438C13.6 15.6418 13.426 15.6668 13.129 15.5178C12.832 15.3688 11.874 15.0558 10.739 14.0428C9.856 13.2548 9.259 12.2818 9.086 11.9838C8.913 11.6868 9.068 11.5258 9.216 11.3778C9.35 11.2448 9.513 11.0308 9.662 10.8568C9.813 10.6848 9.862 10.5608 9.962 10.3618C10.061 10.1638 10.012 9.98984 9.937 9.84084C9.862 9.69284 9.268 8.22984 9.021 7.63484C8.779 7.05584 8.534 7.13384 8.352 7.12484L7.782 7.11484C7.584 7.11484 7.262 7.18884 6.99 7.48684C6.718 7.78484 5.95 8.50284 5.95 9.96584C5.95 11.4288 7.015 12.8418 7.163 13.0398C7.312 13.2378 9.258 16.2398 12.239 17.5268C12.948 17.8328 13.502 18.0158 13.933 18.1528C14.645 18.3788 15.293 18.3468 15.805 18.2708C16.376 18.1858 17.563 17.5518 17.811 16.8578C18.059 16.1628 18.059 15.5678 17.984 15.4438Z" fill="#25D366"/>
</svg>
